<?xml version="1.0" standalone="no"?>
<!DOCTYPE svg PUBLIC "-//W3C//DTD SVG 20010904//EN"
 "http://www.w3.org/TR/2001/REC-SVG-20010904/DTD/svg10.dtd">
<svg version="1.0" xmlns="http://www.w3.org/2000/svg"
 width="512.000000pt" height="512.000000pt" viewBox="0 0 512.000000 512.000000"
 preserveAspectRatio="xMidYMid meet">
<metadata>
Created by potrace 1.11, written by Peter Selinger 2001-2013
</metadata>
<g transform="translate(0.000000,512.000000) scale(0.100000,-0.100000)"
fill="#000000" stroke="none">
<path d="M763 4574 c-63 -19 -136 -71 -172 -124 -55 -80 -59 -109 -57 -393 0
-141 -2 -257 -6 -257 -4 0 -5 -7 -2 -15 9 -22 10 -305 2 -305 -4 0 -5 -7 -2
-15 9 -21 10 -1585 2 -1585 -4 0 -5 -7 -2 -15 9 -22 10 -305 2 -305 -4 0 -5
-7 -2 -15 3 -8 7 -182 8 -387 1 -205 5 -383 9 -396 22 -82 91 -159 179 -202
l57 -28 317 -1 c175 -1 321 -4 326 -7 4 -3 8 -2 8 3 0 4 432 6 960 3 528 -3
960 -3 960 0 0 3 222 4 493 3 l494 -2 66 34 c77 39 119 80 151 147 13 26 25
45 28 43 4 -4 11 902 9 1090 0 14 0 1257 0 1275 3 344 -6 1238 -12 1234 -5 -3
-9 4 -9 16 0 21 -54 109 -74 122 -6 3 -22 16 -36 28 -34 29 -66 45 -120 58
-70 16 -3522 12 -3577 -4z"/>
<path d="M506 758 c3 -5 10 -6 15 -3 13 9 11 12 -6 12 -8 0 -12 -4 -9 -9z"/>
<path d="M695 540 c-3 -5 -1 -10 4 -10 6 0 11 5 11 10 0 6 -2 10 -4 10 -3 0
-8 -4 -11 -10z"/>
<path d="M4415 540 c3 -5 8 -10 11 -10 2 0 4 5 4 10 0 6 -5 10 -11 10 -5 0 -7
-4 -4 -10z"/>
<path d="M2175 511 c-3 -5 -2 -12 3 -15 5 -3 9 1 9 9 0 17 -3 19 -12 6z"/>
<path d="M765 500 c-3 -6 1 -7 9 -4 18 7 21 14 7 14 -6 0 -13 -4 -16 -10z"/>
<path d="M2015 500 c3 -5 8 -10 11 -10 2 0 4 5 4 10 0 6 -5 10 -11 10 -5 0 -7
-4 -4 -10z"/>
<path d="M2335 500 c3 -5 8 -10 11 -10 2 0 4 5 4 10 0 6 -5 10 -11 10 -5 0 -7
-4 -4 -10z"/>
<path d="M3935 500 c3 -5 8 -10 11 -10 2 0 4 5 4 10 0 6 -5 10 -11 10 -5 0 -7
-4 -4 -10z"/>
<path d="M4339 508 c-5 -18 -6 -38 -1 -34 7 8 12 36 6 36 -2 0 -4 -1 -5 -2z"/>
<path d="M4106 482 c-3 -5 1 -9 9 -9 8 0 12 4 9 9 -3 4 -7 8 -9 8 -2 0 -6 -4
-9 -8z"/>
</g>
</svg>
